<svg xmlns="http://www.w3.org/2000/svg" xmlns:xlink="http://www.w3.org/1999/xlink" width="955" zoomAndPan="magnify" viewBox="0 0 716.25 525.000007" height="700" preserveAspectRatio="xMidYMid meet" version="1.0"><defs><g/><clipPath id="9db376ec4d"><path d="M 0.304688 0 L 715.195312 0 L 715.195312 524 L 0.304688 524 Z M 0.304688 0 " clip-rule="nonzero"/></clipPath><clipPath id="cd23ef1970"><path d="M 363.824219 331.007812 L 386.367188 331.007812 L 386.367188 417.390625 L 363.824219 417.390625 Z M 363.824219 331.007812 " clip-rule="nonzero"/></clipPath><clipPath id="0f292c1149"><path d="M 361.441406 295.0625 L 388.753906 295.0625 L 388.753906 320.660156 L 361.441406 320.660156 Z M 361.441406 295.0625 " clip-rule="nonzero"/></clipPath><clipPath id="e0b7d9d31b"><path d="M 365 299.609375 L 385.425781 299.609375 L 385.425781 316.632812 L 365 316.632812 Z M 365 299.609375 " clip-rule="nonzero"/></clipPath></defs><g clip-path="url(#9db376ec4d)"><path fill="#ffffff" d="M 0.304688 0 L 715.195312 0 L 715.195312 524 L 0.304688 524 Z M 0.304688 0 " fill-opacity="1" fill-rule="nonzero"/></g><g fill="#ffffff" fill-opacity="1"><g transform="translate(100.61649, 398.588311)"><g><path d="M 48.15625 -98.921875 C 54.3125 -98.921875 60.671875 -98.765625 67.234375 -98.453125 C 68.046875 -98.359375 69.039062 -98.285156 70.21875 -98.234375 C 71.40625 -98.179688 72.867188 -98.101562 74.609375 -98 C 77.890625 -97.789062 79.890625 -97.632812 80.609375 -97.53125 L 87.234375 -97.234375 L 87.078125 -74 C 86.867188 -74 85.632812 -74.175781 83.375 -74.53125 C 81.125 -74.894531 78.203125 -75.332031 74.609375 -75.84375 C 71.023438 -76.25 67.460938 -76.582031 63.921875 -76.84375 C 60.378906 -77.101562 56.816406 -77.234375 53.234375 -77.234375 C 51.378906 -77.234375 49.195312 -77.15625 46.6875 -77 C 44.175781 -76.84375 41.816406 -76.429688 39.609375 -75.765625 C 37.410156 -75.097656 35.539062 -74.046875 34 -72.609375 C 32.457031 -71.171875 31.6875 -69.117188 31.6875 -66.453125 C 31.6875 -63.992188 32.503906 -62.203125 34.140625 -61.078125 C 35.785156 -59.953125 37.632812 -59.128906 39.6875 -58.609375 C 40.820312 -58.304688 42.460938 -58 44.609375 -57.6875 C 46.765625 -57.382812 49.484375 -57.023438 52.765625 -56.609375 C 58.304688 -55.992188 62.972656 -55.429688 66.765625 -54.921875 C 70.554688 -54.410156 73.632812 -53.742188 76 -52.921875 C 79.488281 -51.796875 82.515625 -50.179688 85.078125 -48.078125 C 87.640625 -45.972656 89.738281 -43.5625 91.375 -40.84375 C 93.019531 -38.125 94.226562 -35.125 95 -31.84375 C 95.769531 -28.5625 96.15625 -25.226562 96.15625 -21.84375 C 96.15625 -20.101562 96.128906 -18.515625 96.078125 -17.078125 C 96.023438 -15.640625 95.945312 -14.410156 95.84375 -13.390625 C 95.019531 -7.335938 93.144531 -2.363281 90.21875 1.53125 C 87.300781 5.4375 83.738281 8.488281 79.53125 10.6875 C 75.332031 12.894531 70.664062 14.429688 65.53125 15.296875 C 60.40625 16.171875 55.226562 16.609375 50 16.609375 C 43.019531 16.609375 36.039062 15.835938 29.0625 14.296875 C 22.09375 12.765625 15.378906 10.664062 8.921875 8 L 7.84375 7.53125 L 7.6875 -5.53125 C 7.894531 -13.125 8.050781 -16.921875 8.15625 -16.921875 C 8.5625 -16.921875 10.148438 -16.5625 12.921875 -15.84375 C 18.460938 -14.507812 24 -13.429688 29.53125 -12.609375 C 35.070312 -11.796875 40.710938 -11.285156 46.453125 -11.078125 C 48.503906 -10.972656 50.273438 -10.945312 51.765625 -11 C 53.253906 -11.050781 54.410156 -11.128906 55.234375 -11.234375 C 58.617188 -11.742188 61.332031 -12.613281 63.375 -13.84375 C 65.425781 -15.070312 67.019531 -16.660156 68.15625 -18.609375 C 68.769531 -19.847656 69.078125 -21.644531 69.078125 -24 C 69.078125 -27.28125 68.410156 -29.5625 67.078125 -30.84375 C 65.742188 -32.125 63.382812 -33.070312 60 -33.6875 C 59.175781 -33.894531 58.097656 -34.050781 56.765625 -34.15625 C 55.429688 -34.257812 53.789062 -34.410156 51.84375 -34.609375 C 43.945312 -35.535156 37.304688 -36.613281 31.921875 -37.84375 C 26.535156 -39.070312 22.148438 -40.660156 18.765625 -42.609375 C 14.253906 -45.171875 11.023438 -48.53125 9.078125 -52.6875 C 7.128906 -56.84375 6.15625 -61.691406 6.15625 -67.234375 C 6.15625 -74.515625 7.875 -80.664062 11.3125 -85.6875 C 14.75 -90.71875 19.539062 -94.257812 25.6875 -96.3125 C 29.28125 -97.539062 32.972656 -98.28125 36.765625 -98.53125 C 40.554688 -98.789062 44.351562 -98.921875 48.15625 -98.921875 Z M 48.15625 -98.921875 "/></g></g></g><g fill="#ffffff" fill-opacity="1"><g transform="translate(202.912412, 398.588311)"><g><path d="M 47.53125 -70.921875 C 51.019531 -71.234375 54.816406 -71.234375 58.921875 -70.921875 C 64.566406 -70.609375 69.054688 -70.347656 72.390625 -70.140625 C 75.722656 -69.941406 77.796875 -69.738281 78.609375 -69.53125 L 79.234375 -69.390625 L 79.234375 -57.84375 C 79.234375 -50.351562 79.179688 -46.554688 79.078125 -46.453125 C 78.972656 -46.359375 78.457031 -46.617188 77.53125 -47.234375 C 74.144531 -49.378906 69.992188 -50.914062 65.078125 -51.84375 C 64.460938 -52.050781 63.515625 -52.179688 62.234375 -52.234375 C 60.953125 -52.285156 59.382812 -52.3125 57.53125 -52.3125 C 53.53125 -52.207031 49.785156 -51.691406 46.296875 -50.765625 C 42.816406 -49.847656 39.769531 -48.4375 37.15625 -46.53125 C 34.539062 -44.632812 32.4375 -42.195312 30.84375 -39.21875 C 29.257812 -36.25 28.363281 -32.613281 28.15625 -28.3125 C 28.15625 -24.3125 28.921875 -20.976562 30.453125 -18.3125 C 31.992188 -15.644531 34.019531 -13.539062 36.53125 -12 C 39.050781 -10.457031 41.925781 -9.351562 45.15625 -8.6875 C 48.382812 -8.019531 51.691406 -7.6875 55.078125 -7.6875 C 59.484375 -7.6875 63.632812 -8.125 67.53125 -9 C 71.4375 -9.875 75.335938 -11.4375 79.234375 -13.6875 C 80.566406 -14.40625 81.285156 -14.765625 81.390625 -14.765625 C 81.484375 -14.765625 81.53125 -10.507812 81.53125 -2 L 81.53125 10.765625 L 79.234375 11.6875 C 72.359375 14.769531 64.203125 16.3125 54.765625 16.3125 C 47.890625 16.3125 41.476562 15.4375 35.53125 13.6875 C 29.582031 11.945312 24.425781 9.28125 20.0625 5.6875 C 15.707031 2.101562 12.300781 -2.457031 9.84375 -8 C 7.382812 -13.539062 6.15625 -20.15625 6.15625 -27.84375 C 6.257812 -34.207031 7.335938 -39.925781 9.390625 -45 C 11.441406 -50.070312 14.257812 -54.453125 17.84375 -58.140625 C 21.4375 -61.835938 25.742188 -64.789062 30.765625 -67 C 35.796875 -69.207031 41.382812 -70.515625 47.53125 -70.921875 Z M 47.53125 -70.921875 "/></g></g></g><g fill="#ffffff" fill-opacity="1"><g transform="translate(289.517835, 398.588311)"><g><path d="M 55.84375 -71.390625 C 57.6875 -71.898438 58.660156 -72.15625 58.765625 -72.15625 C 59.179688 -72.15625 59.390625 -71.640625 59.390625 -70.609375 L 59.390625 -61.6875 C 59.390625 -54.507812 59.335938 -50.765625 59.234375 -50.453125 C 59.128906 -50.046875 58.101562 -49.691406 56.15625 -49.390625 C 54 -49.078125 51.789062 -48.640625 49.53125 -48.078125 C 47.28125 -47.515625 45.15625 -46.71875 43.15625 -45.6875 C 41.15625 -44.664062 39.304688 -43.382812 37.609375 -41.84375 C 35.921875 -40.300781 34.5625 -38.507812 33.53125 -36.46875 L 32.3125 -34 L 32.3125 15.84375 L 9.234375 15.84375 L 9.234375 -31.53125 L 9.390625 -70.609375 L 31.53125 -70.609375 L 31.53125 -55.6875 C 31.632812 -55.6875 32.660156 -56.660156 34.609375 -58.609375 C 40.765625 -64.765625 47.84375 -69.023438 55.84375 -71.390625 Z M 55.84375 -71.390625 "/></g></g></g><g clip-path="url(#cd23ef1970)"><path fill="#ffffff" d="M 363.824219 331.007812 L 386.367188 331.007812 L 386.367188 417.394531 L 363.824219 417.394531 Z M 363.824219 331.007812 " fill-opacity="1" fill-rule="nonzero"/></g><g clip-path="url(#0f292c1149)"><path fill="#ffbd59" d="M 361.441406 295.0625 L 388.742188 295.0625 L 388.742188 320.660156 L 361.441406 320.660156 Z M 361.441406 295.0625 " fill-opacity="1" fill-rule="nonzero"/></g><g clip-path="url(#e0b7d9d31b)"><path fill="#ffffff" d="M 385.085938 295.527344 L 365.472656 295.527344 C 365.199219 295.527344 364.925781 295.554688 364.65625 295.605469 C 364.382812 295.660156 364.121094 295.742188 363.867188 295.847656 C 363.609375 295.953125 363.371094 296.082031 363.140625 296.234375 C 362.910156 296.386719 362.699219 296.5625 362.503906 296.757812 C 362.308594 296.953125 362.132812 297.164062 361.980469 297.394531 C 361.828125 297.625 361.699219 297.867188 361.59375 298.121094 C 361.488281 298.375 361.40625 298.636719 361.351562 298.910156 C 361.300781 299.179688 361.273438 299.453125 361.273438 299.730469 L 361.273438 316.535156 C 361.273438 316.8125 361.300781 317.085938 361.351562 317.355469 C 361.40625 317.628906 361.488281 317.890625 361.59375 318.144531 C 361.699219 318.398438 361.828125 318.640625 361.980469 318.871094 C 362.132812 319.101562 362.308594 319.3125 362.503906 319.507812 C 362.699219 319.703125 362.910156 319.878906 363.140625 320.03125 C 363.371094 320.183594 363.609375 320.3125 363.867188 320.417969 C 364.121094 320.523438 364.382812 320.605469 364.65625 320.660156 C 364.925781 320.710938 365.199219 320.738281 365.472656 320.738281 L 385.085938 320.738281 C 385.359375 320.738281 385.632812 320.710938 385.902344 320.660156 C 386.175781 320.605469 386.4375 320.523438 386.691406 320.417969 C 386.945312 320.3125 387.1875 320.183594 387.417969 320.03125 C 387.648438 319.878906 387.859375 319.703125 388.054688 319.507812 C 388.25 319.3125 388.425781 319.101562 388.578125 318.871094 C 388.730469 318.640625 388.859375 318.398438 388.964844 318.144531 C 389.070312 317.890625 389.152344 317.628906 389.207031 317.355469 C 389.257812 317.085938 389.285156 316.8125 389.285156 316.535156 L 389.285156 299.730469 C 389.285156 299.453125 389.257812 299.179688 389.207031 298.910156 C 389.152344 298.636719 389.070312 298.375 388.964844 298.121094 C 388.859375 297.867188 388.730469 297.625 388.578125 297.394531 C 388.425781 297.164062 388.25 296.953125 388.054688 296.757812 C 387.859375 296.5625 387.648438 296.386719 387.417969 296.234375 C 387.1875 296.082031 386.945312 295.953125 386.691406 295.847656 C 386.4375 295.742188 386.175781 295.660156 385.902344 295.605469 C 385.632812 295.554688 385.359375 295.527344 385.085938 295.527344 Z M 386.484375 316.535156 C 386.484375 316.722656 386.449219 316.902344 386.378906 317.074219 C 386.308594 317.246094 386.207031 317.394531 386.074219 317.527344 C 385.941406 317.660156 385.792969 317.761719 385.621094 317.832031 C 385.449219 317.902344 385.269531 317.9375 385.085938 317.9375 L 365.472656 317.9375 C 365.289062 317.9375 365.109375 317.902344 364.9375 317.832031 C 364.765625 317.761719 364.613281 317.660156 364.484375 317.527344 C 364.351562 317.394531 364.25 317.246094 364.179688 317.074219 C 364.109375 316.902344 364.074219 316.722656 364.074219 316.535156 L 364.074219 299.730469 C 364.074219 299.542969 364.109375 299.363281 364.179688 299.191406 C 364.25 299.019531 364.351562 298.871094 364.484375 298.738281 C 364.613281 298.605469 364.765625 298.503906 364.9375 298.433594 C 365.109375 298.363281 365.289062 298.328125 365.472656 298.328125 L 385.085938 298.328125 C 385.269531 298.328125 385.449219 298.363281 385.621094 298.433594 C 385.792969 298.503906 385.941406 298.605469 386.074219 298.738281 C 386.207031 298.871094 386.308594 299.019531 386.378906 299.191406 C 386.449219 299.363281 386.484375 299.542969 386.484375 299.730469 Z M 374.871094 309.128906 L 369.269531 314.730469 C 369.140625 314.863281 368.988281 314.964844 368.8125 315.035156 C 368.640625 315.109375 368.460938 315.144531 368.277344 315.144531 C 368.089844 315.144531 367.910156 315.109375 367.738281 315.035156 C 367.566406 314.964844 367.414062 314.863281 367.28125 314.730469 C 367.148438 314.597656 367.046875 314.445312 366.972656 314.273438 C 366.902344 314.101562 366.867188 313.921875 366.867188 313.734375 C 366.867188 313.550781 366.902344 313.371094 366.972656 313.195312 C 367.046875 313.023438 367.148438 312.871094 367.28125 312.742188 L 371.902344 308.132812 L 367.28125 303.523438 C 367.148438 303.394531 367.046875 303.242188 366.976562 303.066406 C 366.90625 302.894531 366.871094 302.714844 366.871094 302.53125 C 366.871094 302.34375 366.90625 302.164062 366.976562 301.992188 C 367.046875 301.820312 367.148438 301.667969 367.28125 301.535156 C 367.414062 301.402344 367.566406 301.300781 367.738281 301.230469 C 367.910156 301.160156 368.089844 301.125 368.277344 301.125 C 368.460938 301.125 368.640625 301.160156 368.8125 301.230469 C 368.984375 301.300781 369.136719 301.402344 369.269531 301.535156 L 374.871094 307.136719 C 375.003906 307.269531 375.109375 307.421875 375.179688 307.59375 C 375.25 307.765625 375.289062 307.945312 375.289062 308.132812 C 375.289062 308.320312 375.25 308.5 375.179688 308.671875 C 375.109375 308.84375 375.003906 308.996094 374.871094 309.128906 Z M 383.683594 313.734375 C 383.683594 313.921875 383.648438 314.101562 383.578125 314.273438 C 383.503906 314.441406 383.40625 314.59375 383.273438 314.726562 C 383.140625 314.855469 382.992188 314.957031 382.820312 315.03125 C 382.648438 315.101562 382.46875 315.136719 382.28125 315.136719 L 376.679688 315.136719 C 376.496094 315.136719 376.316406 315.101562 376.144531 315.03125 C 375.972656 314.957031 375.820312 314.855469 375.6875 314.726562 C 375.558594 314.59375 375.457031 314.441406 375.386719 314.273438 C 375.316406 314.101562 375.277344 313.921875 375.277344 313.734375 C 375.277344 313.550781 375.316406 313.371094 375.386719 313.199219 C 375.457031 313.027344 375.558594 312.875 375.6875 312.746094 C 375.820312 312.613281 375.972656 312.511719 376.144531 312.441406 C 376.316406 312.371094 376.496094 312.335938 376.679688 312.335938 L 382.28125 312.335938 C 382.46875 312.335938 382.648438 312.371094 382.820312 312.441406 C 382.992188 312.511719 383.140625 312.613281 383.273438 312.746094 C 383.40625 312.875 383.503906 313.027344 383.578125 313.199219 C 383.648438 313.371094 383.683594 313.550781 383.683594 313.734375 Z M 383.683594 313.734375 " fill-opacity="1" fill-rule="nonzero"/></g><g fill="#ffffff" fill-opacity="1"><g transform="translate(396.602076, 398.588311)"><g><path d="M 58 -53.390625 C 54.207031 -53.390625 50.539062 -52.976562 47 -52.15625 C 43.457031 -51.332031 39.945312 -50.203125 36.46875 -48.765625 L 33.234375 -47.390625 L 33.53125 -23.390625 L 34.46875 -21.390625 C 35.28125 -19.535156 36.457031 -17.96875 38 -16.6875 C 39.539062 -15.40625 41.257812 -14.328125 43.15625 -13.453125 C 45.050781 -12.585938 47.050781 -11.945312 49.15625 -11.53125 C 51.257812 -11.125 53.234375 -10.921875 55.078125 -10.921875 C 58.660156 -10.921875 61.582031 -11.484375 63.84375 -12.609375 C 66.101562 -13.742188 67.898438 -15.285156 69.234375 -17.234375 C 70.566406 -19.179688 71.460938 -21.488281 71.921875 -24.15625 C 72.378906 -26.820312 72.609375 -29.640625 72.609375 -32.609375 C 72.609375 -35.179688 72.453125 -37.722656 72.140625 -40.234375 C 71.835938 -42.742188 71.171875 -44.972656 70.140625 -46.921875 C 69.117188 -48.867188 67.660156 -50.429688 65.765625 -51.609375 C 63.867188 -52.796875 61.28125 -53.390625 58 -53.390625 Z M 61.390625 -70.765625 C 65.484375 -70.765625 69.375 -70.351562 73.0625 -69.53125 C 76.757812 -68.71875 80.117188 -67.359375 83.140625 -65.453125 C 86.171875 -63.554688 88.738281 -61.09375 90.84375 -58.0625 C 92.945312 -55.039062 94.507812 -51.273438 95.53125 -46.765625 C 95.738281 -45.640625 95.96875 -43.894531 96.21875 -41.53125 C 96.476562 -39.175781 96.660156 -36.101562 96.765625 -32.3125 C 96.867188 -29.332031 96.816406 -26.765625 96.609375 -24.609375 C 96.410156 -22.460938 96.207031 -20.722656 96 -19.390625 C 94.769531 -8.515625 90.796875 -0.179688 84.078125 5.609375 C 77.359375 11.410156 68.5625 14.3125 57.6875 14.3125 C 53.382812 14.3125 49.410156 13.71875 45.765625 12.53125 C 42.128906 11.351562 38.820312 9.640625 35.84375 7.390625 L 33.390625 5.53125 L 33.390625 48.15625 L 9.53125 48.15625 L 9.6875 -8.46875 C 9.789062 -26.71875 9.84375 -40.765625 9.84375 -50.609375 C 9.84375 -60.460938 9.84375 -66.15625 9.84375 -67.6875 L 9.84375 -70.453125 L 33.234375 -70.453125 L 33.53125 -61.390625 L 36.15625 -63.078125 C 40.15625 -65.640625 44.15625 -67.5625 48.15625 -68.84375 C 52.15625 -70.125 56.566406 -70.765625 61.390625 -70.765625 Z M 61.390625 -70.765625 "/></g></g></g><g fill="#ffffff" fill-opacity="1"><g transform="translate(499.667156, 398.588311)"><g><path d="M 19.84375 -88.921875 L 20.15625 -92.765625 L 43.078125 -92.765625 L 43.078125 -70.765625 C 43.078125 -70.460938 46.613281 -70.3125 53.6875 -70.3125 L 64.15625 -70.3125 L 64 -60 L 64 -49.84375 L 53.53125 -49.84375 C 46.664062 -49.84375 43.128906 -49.738281 42.921875 -49.53125 L 42.765625 -35.53125 C 42.867188 -30.820312 42.921875 -27.054688 42.921875 -24.234375 C 42.921875 -21.410156 42.921875 -19.535156 42.921875 -18.609375 C 42.921875 -16.765625 43.078125 -15.535156 43.390625 -14.921875 C 44.203125 -13.179688 45.710938 -11.976562 47.921875 -11.3125 C 50.128906 -10.644531 53.539062 -10.257812 58.15625 -10.15625 L 63.84375 -10.15625 L 63.84375 2 C 63.84375 9.789062 63.738281 14.203125 63.53125 15.234375 L 63.390625 16.3125 L 61.078125 16.3125 C 58.097656 16.3125 55.046875 16.234375 51.921875 16.078125 C 48.796875 15.921875 45.742188 15.507812 42.765625 14.84375 C 39.796875 14.175781 36.953125 13.203125 34.234375 11.921875 C 31.515625 10.640625 29.023438 8.867188 26.765625 6.609375 C 24.410156 4.148438 22.664062 1.535156 21.53125 -1.234375 C 20.40625 -4.003906 19.738281 -7.03125 19.53125 -10.3125 C 19.4375 -11.539062 19.363281 -13.972656 19.3125 -17.609375 C 19.257812 -21.253906 19.234375 -26.207031 19.234375 -32.46875 L 19.234375 -49.6875 L 2.46875 -49.6875 L 2.46875 -54.3125 C 2.46875 -54.613281 2.46875 -55.25 2.46875 -56.21875 C 2.46875 -57.195312 2.441406 -58.222656 2.390625 -59.296875 C 2.335938 -60.378906 2.3125 -61.378906 2.3125 -62.296875 C 2.3125 -63.222656 2.3125 -63.84375 2.3125 -64.15625 L 2.3125 -69.84375 C 2.507812 -70.15625 5.429688 -70.3125 11.078125 -70.3125 L 19.6875 -70.3125 L 19.6875 -77.53125 C 19.6875 -80.101562 19.6875 -82.335938 19.6875 -84.234375 C 19.6875 -86.128906 19.738281 -87.691406 19.84375 -88.921875 Z M 19.84375 -88.921875 "/></g></g></g><g fill="#ffbd59" fill-opacity="1"><g transform="translate(89.499556, 215.170101)"><g><path d="M 69.53125 -99.6875 C 78.863281 -99.6875 88.25 -98.351562 97.6875 -95.6875 L 99.84375 -95.078125 L 99.84375 -82.765625 C 99.84375 -74.554688 99.789062 -70.453125 99.6875 -70.453125 C 99.582031 -70.453125 99.425781 -70.554688 99.21875 -70.765625 C 99.019531 -70.972656 98.613281 -71.28125 98 -71.6875 C 96.457031 -72.820312 94.582031 -73.796875 92.375 -74.609375 C 90.175781 -75.429688 87.894531 -76.097656 85.53125 -76.609375 C 83.175781 -77.128906 80.789062 -77.515625 78.375 -77.765625 C 75.96875 -78.023438 73.789062 -78.15625 71.84375 -78.15625 C 59.019531 -78.15625 49.453125 -75.179688 43.140625 -69.234375 C 36.835938 -63.285156 33.484375 -54.15625 33.078125 -41.84375 C 32.972656 -39.382812 32.945312 -37.179688 33 -35.234375 C 33.050781 -33.285156 33.226562 -31.488281 33.53125 -29.84375 C 34.25 -26.050781 36.171875 -22.691406 39.296875 -19.765625 C 42.429688 -16.847656 45.742188 -14.722656 49.234375 -13.390625 C 51.691406 -12.460938 54.457031 -11.765625 57.53125 -11.296875 C 60.613281 -10.835938 63.796875 -10.609375 67.078125 -10.609375 C 71.992188 -10.609375 76.757812 -11.09375 81.375 -12.0625 C 86 -13.039062 90.515625 -14.609375 94.921875 -16.765625 C 96.359375 -17.484375 97.460938 -18.070312 98.234375 -18.53125 C 99.003906 -19 99.4375 -19.234375 99.53125 -19.234375 C 99.632812 -19.234375 99.710938 -17.796875 99.765625 -14.921875 C 99.816406 -12.046875 99.84375 -8.609375 99.84375 -4.609375 L 99.84375 10.15625 L 97.390625 11.078125 C 92.765625 12.816406 87.835938 14.070312 82.609375 14.84375 C 77.378906 15.613281 72.304688 16 67.390625 16 C 61.847656 16 56.382812 15.535156 51 14.609375 C 45.613281 13.691406 40.5625 12.15625 35.84375 10 C 31.125 7.84375 26.867188 4.914062 23.078125 1.21875 C 19.285156 -2.46875 16.207031 -7.078125 13.84375 -12.609375 C 12.101562 -16.710938 10.875 -21.097656 10.15625 -25.765625 C 9.4375 -30.429688 9.179688 -35.535156 9.390625 -41.078125 C 9.585938 -47.234375 10.125 -52.742188 11 -57.609375 C 11.875 -62.484375 13.285156 -66.816406 15.234375 -70.609375 C 17.898438 -75.835938 21.179688 -80.296875 25.078125 -83.984375 C 28.972656 -87.679688 33.253906 -90.679688 37.921875 -92.984375 C 42.585938 -95.296875 47.613281 -96.988281 53 -98.0625 C 58.382812 -99.144531 63.894531 -99.6875 69.53125 -99.6875 Z M 69.53125 -99.6875 "/></g></g></g><g fill="#ffffff" fill-opacity="1"><g transform="translate(197.188962, 215.170101)"><g><path d="M 51.6875 -56.3125 C 45.84375 -56.3125 41 -55.050781 37.15625 -52.53125 C 33.3125 -50.019531 30.820312 -45.84375 29.6875 -40 L 29.53125 -39.234375 L 46.921875 -39.234375 L 64.453125 -39.390625 L 64.453125 -42.3125 C 64.253906 -46.613281 63.203125 -50.019531 61.296875 -52.53125 C 59.398438 -55.050781 56.195312 -56.3125 51.6875 -56.3125 Z M 42.15625 -70.453125 C 43.070312 -70.554688 44.300781 -70.632812 45.84375 -70.6875 C 47.382812 -70.738281 49.234375 -70.710938 51.390625 -70.609375 C 55.691406 -70.503906 59.921875 -70.015625 64.078125 -69.140625 C 68.234375 -68.273438 72.023438 -66.894531 75.453125 -65 C 78.890625 -63.101562 81.785156 -60.585938 84.140625 -57.453125 C 86.503906 -54.328125 88.046875 -50.351562 88.765625 -45.53125 C 88.972656 -43.894531 89.148438 -41.84375 89.296875 -39.375 C 89.453125 -36.914062 89.53125 -33.992188 89.53125 -30.609375 L 89.53125 -22.609375 L 29.53125 -22.609375 L 29.6875 -21.234375 C 30 -18.148438 30.847656 -15.710938 32.234375 -13.921875 C 33.617188 -12.128906 35.285156 -10.796875 37.234375 -9.921875 C 39.179688 -9.046875 41.359375 -8.476562 43.765625 -8.21875 C 46.179688 -7.96875 48.617188 -7.84375 51.078125 -7.84375 C 55.898438 -7.84375 60.488281 -8.226562 64.84375 -9 C 69.207031 -9.769531 73.644531 -10.972656 78.15625 -12.609375 C 80.101562 -13.328125 81.769531 -13.96875 83.15625 -14.53125 C 84.539062 -15.101562 85.640625 -15.644531 86.453125 -16.15625 C 86.972656 -16.457031 87.285156 -16.609375 87.390625 -16.609375 C 87.484375 -16.710938 87.582031 -16.765625 87.6875 -16.765625 C 87.6875 -16.660156 87.609375 -15.835938 87.453125 -14.296875 C 87.304688 -12.765625 87.023438 -10.460938 86.609375 -7.390625 C 86.097656 -3.898438 85.738281 -1.128906 85.53125 0.921875 C 85.332031 2.972656 85.179688 4.410156 85.078125 5.234375 L 84.765625 8.46875 L 82.3125 9.53125 C 77.28125 11.789062 72.203125 13.429688 67.078125 14.453125 C 61.953125 15.484375 56.671875 16 51.234375 16 C 45.691406 16 40.429688 15.457031 35.453125 14.375 C 30.484375 13.300781 26.023438 11.535156 22.078125 9.078125 C 18.128906 6.617188 14.820312 3.414062 12.15625 -0.53125 C 9.488281 -4.488281 7.691406 -9.390625 6.765625 -15.234375 C 6.359375 -17.285156 6.15625 -21.539062 6.15625 -28 C 6.15625 -34.457031 6.359375 -38.660156 6.765625 -40.609375 C 7.585938 -45.128906 9.078125 -49.15625 11.234375 -52.6875 C 13.390625 -56.226562 16.03125 -59.226562 19.15625 -61.6875 C 22.28125 -64.15625 25.789062 -66.128906 29.6875 -67.609375 C 33.582031 -69.097656 37.738281 -70.046875 42.15625 -70.453125 Z M 42.15625 -70.453125 "/></g></g></g><g fill="#ffffff" fill-opacity="1"><g transform="translate(292.718573, 215.170101)"><g><path d="M 9.53125 -102 L 33.53125 -102 L 33.53125 -13.234375 C 33.53125 -10.566406 33.914062 -8.769531 34.6875 -7.84375 C 35.457031 -6.925781 36.867188 -6.46875 38.921875 -6.46875 L 41.84375 -6.46875 L 41.6875 15.6875 L 35.6875 15.6875 C 30.96875 15.6875 26.941406 15.195312 23.609375 14.21875 C 20.273438 13.25 17.554688 11.632812 15.453125 9.375 C 13.359375 7.125 11.847656 4.148438 10.921875 0.453125 C 9.992188 -3.234375 9.53125 -7.796875 9.53125 -13.234375 Z M 9.53125 -102 "/></g></g></g><g fill="#ffffff" fill-opacity="1"><g transform="translate(336.714493, 215.170101)"><g><path d="M 9.53125 -102 L 33.53125 -102 L 33.53125 -13.234375 C 33.53125 -10.566406 33.914062 -8.769531 34.6875 -7.84375 C 35.457031 -6.925781 36.867188 -6.46875 38.921875 -6.46875 L 41.84375 -6.46875 L 41.6875 15.6875 L 35.6875 15.6875 C 30.96875 15.6875 26.941406 15.195312 23.609375 14.21875 C 20.273438 13.25 17.554688 11.632812 15.453125 9.375 C 13.359375 7.125 11.847656 4.148438 10.921875 0.453125 C 9.992188 -3.234375 9.53125 -7.796875 9.53125 -13.234375 Z M 9.53125 -102 "/></g></g></g></svg>