<svg xmlns="http://www.w3.org/2000/svg" xmlns:xlink="http://www.w3.org/1999/xlink" width="1024" zoomAndPan="magnify" viewBox="0 0 768 251.250001" height="335" preserveAspectRatio="xMidYMid meet" version="1.0"><defs><g/><clipPath id="a25a1392f3"><path d="M 508.183594 108.175781 L 524.78125 108.175781 L 524.78125 171.769531 L 508.183594 171.769531 Z M 508.183594 108.175781 " clip-rule="nonzero"/></clipPath><clipPath id="ea9b56c328"><path d="M 506.429688 81.710938 L 526.535156 81.710938 L 526.535156 100.558594 L 506.429688 100.558594 Z M 506.429688 81.710938 " clip-rule="nonzero"/></clipPath><clipPath id="f2de5b5822"><path d="M 509.050781 85.058594 L 524.125 85.058594 L 524.125 97.121094 L 509.050781 97.121094 Z M 509.050781 85.058594 " clip-rule="nonzero"/></clipPath></defs><g fill="#ffbd59" fill-opacity="1"><g transform="translate(58.453505, 158.14962)"><g><path d="M 51.1875 -73.390625 C 58.0625 -73.390625 64.96875 -72.40625 71.90625 -70.4375 L 73.5 -69.984375 L 73.5 -60.921875 C 73.5 -54.890625 73.460938 -51.875 73.390625 -51.875 C 73.304688 -51.875 73.1875 -51.945312 73.03125 -52.09375 C 72.882812 -52.25 72.585938 -52.476562 72.140625 -52.78125 C 71.003906 -53.601562 69.625 -54.316406 68 -54.921875 C 66.382812 -55.523438 64.707031 -56.015625 62.96875 -56.390625 C 61.226562 -56.773438 59.472656 -57.0625 57.703125 -57.25 C 55.929688 -57.4375 54.328125 -57.53125 52.890625 -57.53125 C 43.453125 -57.53125 36.410156 -55.335938 31.765625 -50.953125 C 27.117188 -46.578125 24.644531 -39.859375 24.34375 -30.796875 C 24.269531 -28.992188 24.25 -27.375 24.28125 -25.9375 C 24.320312 -24.5 24.457031 -23.175781 24.6875 -21.96875 C 25.21875 -19.175781 26.632812 -16.703125 28.9375 -14.546875 C 31.238281 -12.398438 33.671875 -10.835938 36.234375 -9.859375 C 38.046875 -9.171875 40.082031 -8.65625 42.34375 -8.3125 C 44.613281 -7.976562 46.957031 -7.8125 49.375 -7.8125 C 53 -7.8125 56.507812 -8.171875 59.90625 -8.890625 C 63.300781 -9.609375 66.625 -10.757812 69.875 -12.34375 C 70.925781 -12.875 71.734375 -13.304688 72.296875 -13.640625 C 72.867188 -13.984375 73.191406 -14.15625 73.265625 -14.15625 C 73.347656 -14.15625 73.40625 -13.097656 73.4375 -10.984375 C 73.476562 -8.867188 73.5 -6.335938 73.5 -3.390625 L 73.5 7.46875 L 71.6875 8.15625 C 68.289062 9.4375 64.664062 10.359375 60.8125 10.921875 C 56.96875 11.492188 53.234375 11.78125 49.609375 11.78125 C 45.523438 11.78125 41.5 11.4375 37.53125 10.75 C 33.570312 10.070312 29.851562 8.941406 26.375 7.359375 C 22.90625 5.773438 19.773438 3.625 16.984375 0.90625 C 14.191406 -1.8125 11.925781 -5.207031 10.1875 -9.28125 C 8.90625 -12.300781 8 -15.53125 7.46875 -18.96875 C 6.945312 -22.40625 6.757812 -26.160156 6.90625 -30.234375 C 7.0625 -34.765625 7.457031 -38.820312 8.09375 -42.40625 C 8.738281 -46 9.78125 -49.191406 11.21875 -51.984375 C 13.175781 -55.828125 15.585938 -59.109375 18.453125 -61.828125 C 21.328125 -64.546875 24.476562 -66.753906 27.90625 -68.453125 C 31.34375 -70.148438 35.039062 -71.394531 39 -72.1875 C 42.96875 -72.988281 47.03125 -73.390625 51.1875 -73.390625 Z M 51.1875 -73.390625 "/></g></g></g><g fill="#ffffff" fill-opacity="1"><g transform="translate(137.740263, 158.14962)"><g><path d="M 38.046875 -41.453125 C 33.742188 -41.453125 30.175781 -40.523438 27.34375 -38.671875 C 24.519531 -36.828125 22.691406 -33.75 21.859375 -29.4375 L 21.75 -28.875 L 34.546875 -28.875 L 47.453125 -28.984375 L 47.453125 -31.140625 C 47.296875 -34.316406 46.519531 -36.828125 45.125 -38.671875 C 43.726562 -40.523438 41.367188 -41.453125 38.046875 -41.453125 Z M 31.03125 -51.875 C 31.707031 -51.945312 32.613281 -52 33.75 -52.03125 C 34.882812 -52.070312 36.242188 -52.054688 37.828125 -51.984375 C 40.992188 -51.910156 44.101562 -51.550781 47.15625 -50.90625 C 50.21875 -50.257812 53.015625 -49.238281 55.546875 -47.84375 C 58.078125 -46.445312 60.207031 -44.597656 61.9375 -42.296875 C 63.675781 -39.992188 64.8125 -37.066406 65.34375 -33.515625 C 65.5 -32.304688 65.628906 -30.796875 65.734375 -28.984375 C 65.847656 -27.179688 65.90625 -25.03125 65.90625 -22.53125 L 65.90625 -16.640625 L 21.75 -16.640625 L 21.859375 -15.625 C 22.085938 -13.363281 22.707031 -11.570312 23.71875 -10.25 C 24.738281 -8.925781 25.96875 -7.941406 27.40625 -7.296875 C 28.84375 -6.660156 30.445312 -6.25 32.21875 -6.0625 C 33.988281 -5.875 35.78125 -5.78125 37.59375 -5.78125 C 41.144531 -5.78125 44.523438 -6.0625 47.734375 -6.625 C 50.941406 -7.1875 54.207031 -8.070312 57.53125 -9.28125 C 58.96875 -9.8125 60.191406 -10.285156 61.203125 -10.703125 C 62.222656 -11.117188 63.035156 -11.515625 63.640625 -11.890625 C 64.023438 -12.117188 64.253906 -12.234375 64.328125 -12.234375 C 64.398438 -12.304688 64.472656 -12.34375 64.546875 -12.34375 C 64.546875 -12.269531 64.488281 -11.664062 64.375 -10.53125 C 64.269531 -9.394531 64.066406 -7.695312 63.765625 -5.4375 C 63.378906 -2.863281 63.109375 -0.828125 62.953125 0.671875 C 62.804688 2.179688 62.695312 3.238281 62.625 3.84375 L 62.40625 6.234375 L 60.59375 7.015625 C 56.894531 8.679688 53.15625 9.890625 49.375 10.640625 C 45.601562 11.398438 41.71875 11.78125 37.71875 11.78125 C 33.632812 11.78125 29.757812 11.382812 26.09375 10.59375 C 22.4375 9.800781 19.15625 8.5 16.25 6.6875 C 13.34375 4.875 10.90625 2.515625 8.9375 -0.390625 C 6.976562 -3.296875 5.660156 -6.90625 4.984375 -11.21875 C 4.679688 -12.726562 4.53125 -15.859375 4.53125 -20.609375 C 4.53125 -25.367188 4.679688 -28.460938 4.984375 -29.890625 C 5.585938 -33.210938 6.679688 -36.175781 8.265625 -38.78125 C 9.847656 -41.382812 11.789062 -43.59375 14.09375 -45.40625 C 16.394531 -47.21875 18.976562 -48.671875 21.84375 -49.765625 C 24.71875 -50.867188 27.78125 -51.570312 31.03125 -51.875 Z M 31.03125 -51.875 "/></g></g></g><g fill="#ffffff" fill-opacity="1"><g transform="translate(208.069563, 158.14962)"><g><path d="M 7.015625 -75.078125 L 24.6875 -75.078125 L 24.6875 -9.734375 C 24.6875 -7.773438 24.96875 -6.453125 25.53125 -5.765625 C 26.101562 -5.085938 27.144531 -4.75 28.65625 -4.75 L 30.796875 -4.75 L 30.6875 11.546875 L 26.28125 11.546875 C 22.800781 11.546875 19.832031 11.1875 17.375 10.46875 C 14.925781 9.757812 12.925781 8.570312 11.375 6.90625 C 9.832031 5.25 8.71875 3.0625 8.03125 0.34375 C 7.351562 -2.375 7.015625 -5.734375 7.015625 -9.734375 Z M 7.015625 -75.078125 "/></g></g></g><g fill="#ffffff" fill-opacity="1"><g transform="translate(240.459551, 158.14962)"><g><path d="M 7.015625 -75.078125 L 24.6875 -75.078125 L 24.6875 -9.734375 C 24.6875 -7.773438 24.96875 -6.453125 25.53125 -5.765625 C 26.101562 -5.085938 27.144531 -4.75 28.65625 -4.75 L 30.796875 -4.75 L 30.6875 11.546875 L 26.28125 11.546875 C 22.800781 11.546875 19.832031 11.1875 17.375 10.46875 C 14.925781 9.757812 12.925781 8.570312 11.375 6.90625 C 9.832031 5.25 8.71875 3.0625 8.03125 0.34375 C 7.351562 -2.375 7.015625 -5.734375 7.015625 -9.734375 Z M 7.015625 -75.078125 "/></g></g></g><g fill="#ffffff" fill-opacity="1"><g transform="translate(272.849538, 158.14962)"><g/></g></g><g fill="#ffffff" fill-opacity="1"><g transform="translate(312.487634, 158.14962)"><g><path d="M 35.453125 -72.8125 C 39.984375 -72.8125 44.660156 -72.703125 49.484375 -72.484375 C 50.085938 -72.398438 50.820312 -72.335938 51.6875 -72.296875 C 52.5625 -72.265625 53.640625 -72.210938 54.921875 -72.140625 C 57.335938 -71.984375 58.8125 -71.867188 59.34375 -71.796875 L 64.21875 -71.578125 L 64.09375 -54.46875 C 63.945312 -54.46875 63.039062 -54.597656 61.375 -54.859375 C 59.71875 -55.128906 57.566406 -55.453125 54.921875 -55.828125 C 52.285156 -56.128906 49.660156 -56.375 47.046875 -56.5625 C 44.441406 -56.75 41.820312 -56.84375 39.1875 -56.84375 C 37.820312 -56.84375 36.210938 -56.785156 34.359375 -56.671875 C 32.515625 -56.566406 30.78125 -56.269531 29.15625 -55.78125 C 27.539062 -55.289062 26.164062 -54.515625 25.03125 -53.453125 C 23.894531 -52.398438 23.328125 -50.890625 23.328125 -48.921875 C 23.328125 -47.109375 23.929688 -45.785156 25.140625 -44.953125 C 26.347656 -44.128906 27.707031 -43.523438 29.21875 -43.140625 C 30.050781 -42.921875 31.257812 -42.695312 32.84375 -42.46875 C 34.425781 -42.238281 36.425781 -41.972656 38.84375 -41.671875 C 42.914062 -41.222656 46.347656 -40.804688 49.140625 -40.421875 C 51.941406 -40.046875 54.210938 -39.554688 55.953125 -38.953125 C 58.515625 -38.128906 60.738281 -36.941406 62.625 -35.390625 C 64.507812 -33.835938 66.054688 -32.0625 67.265625 -30.0625 C 68.472656 -28.0625 69.359375 -25.851562 69.921875 -23.4375 C 70.492188 -21.019531 70.78125 -18.566406 70.78125 -16.078125 C 70.78125 -14.796875 70.757812 -13.625 70.71875 -12.5625 C 70.6875 -11.507812 70.632812 -10.609375 70.5625 -9.859375 C 69.957031 -5.398438 68.578125 -1.738281 66.421875 1.125 C 64.265625 4 61.640625 6.25 58.546875 7.875 C 55.453125 9.5 52.015625 10.628906 48.234375 11.265625 C 44.460938 11.910156 40.65625 12.234375 36.8125 12.234375 C 31.675781 12.234375 26.539062 11.664062 21.40625 10.53125 C 16.269531 9.394531 11.320312 7.847656 6.5625 5.890625 L 5.78125 5.546875 L 5.65625 -4.078125 C 5.8125 -9.660156 5.925781 -12.453125 6 -12.453125 C 6.300781 -12.453125 7.472656 -12.191406 9.515625 -11.671875 C 13.585938 -10.679688 17.660156 -9.882812 21.734375 -9.28125 C 25.816406 -8.675781 29.972656 -8.300781 34.203125 -8.15625 C 35.710938 -8.082031 37.015625 -8.0625 38.109375 -8.09375 C 39.203125 -8.132812 40.050781 -8.191406 40.65625 -8.265625 C 43.144531 -8.640625 45.144531 -9.28125 46.65625 -10.1875 C 48.164062 -11.09375 49.335938 -12.265625 50.171875 -13.703125 C 50.617188 -14.609375 50.84375 -15.929688 50.84375 -17.671875 C 50.84375 -20.085938 50.351562 -21.765625 49.375 -22.703125 C 48.394531 -23.648438 46.660156 -24.347656 44.171875 -24.796875 C 43.566406 -24.953125 42.769531 -25.066406 41.78125 -25.140625 C 40.800781 -25.210938 39.597656 -25.328125 38.171875 -25.484375 C 32.347656 -26.160156 27.453125 -26.953125 23.484375 -27.859375 C 19.523438 -28.765625 16.300781 -29.9375 13.8125 -31.375 C 10.488281 -33.257812 8.109375 -35.726562 6.671875 -38.78125 C 5.242188 -41.84375 4.53125 -45.410156 4.53125 -49.484375 C 4.53125 -54.847656 5.796875 -59.378906 8.328125 -63.078125 C 10.859375 -66.773438 14.382812 -69.378906 18.90625 -70.890625 C 21.550781 -71.796875 24.269531 -72.34375 27.0625 -72.53125 C 29.851562 -72.71875 32.648438 -72.8125 35.453125 -72.8125 Z M 35.453125 -72.8125 "/></g></g></g><g fill="#ffffff" fill-opacity="1"><g transform="translate(387.800004, 158.14962)"><g><path d="M 35 -52.203125 C 37.5625 -52.429688 40.351562 -52.429688 43.375 -52.203125 C 47.53125 -51.984375 50.832031 -51.796875 53.28125 -51.640625 C 55.738281 -51.492188 57.269531 -51.34375 57.875 -51.1875 L 58.328125 -51.078125 L 58.328125 -42.578125 C 58.328125 -37.066406 58.285156 -34.273438 58.203125 -34.203125 C 58.128906 -34.128906 57.753906 -34.316406 57.078125 -34.765625 C 54.585938 -36.347656 51.53125 -37.484375 47.90625 -38.171875 C 47.445312 -38.316406 46.742188 -38.40625 45.796875 -38.4375 C 44.859375 -38.476562 43.710938 -38.5 42.359375 -38.5 C 39.410156 -38.425781 36.648438 -38.050781 34.078125 -37.375 C 31.515625 -36.695312 29.269531 -35.65625 27.34375 -34.25 C 25.425781 -32.851562 23.878906 -31.0625 22.703125 -28.875 C 21.535156 -26.6875 20.875 -24.007812 20.71875 -20.84375 C 20.71875 -17.894531 21.285156 -15.4375 22.421875 -13.46875 C 23.554688 -11.507812 25.046875 -9.960938 26.890625 -8.828125 C 28.742188 -7.703125 30.859375 -6.890625 33.234375 -6.390625 C 35.617188 -5.898438 38.054688 -5.65625 40.546875 -5.65625 C 43.785156 -5.65625 46.835938 -5.976562 49.703125 -6.625 C 52.578125 -7.269531 55.453125 -8.421875 58.328125 -10.078125 C 59.304688 -10.609375 59.832031 -10.875 59.90625 -10.875 C 59.976562 -10.875 60.015625 -7.738281 60.015625 -1.46875 L 60.015625 7.921875 L 58.328125 8.609375 C 53.265625 10.867188 47.257812 12 40.3125 12 C 35.257812 12 30.539062 11.359375 26.15625 10.078125 C 21.78125 8.796875 17.988281 6.832031 14.78125 4.1875 C 11.570312 1.539062 9.0625 -1.816406 7.25 -5.890625 C 5.4375 -9.960938 4.53125 -14.832031 4.53125 -20.5 C 4.601562 -25.175781 5.394531 -29.382812 6.90625 -33.125 C 8.414062 -36.863281 10.488281 -40.09375 13.125 -42.8125 C 15.769531 -45.53125 18.941406 -47.695312 22.640625 -49.3125 C 26.347656 -50.9375 30.46875 -51.898438 35 -52.203125 Z M 35 -52.203125 "/></g></g></g><g fill="#ffffff" fill-opacity="1"><g transform="translate(451.560721, 158.14962)"><g><path d="M 41.109375 -52.546875 C 42.460938 -52.921875 43.179688 -53.109375 43.265625 -53.109375 C 43.566406 -53.109375 43.71875 -52.734375 43.71875 -51.984375 L 43.71875 -45.40625 C 43.71875 -40.125 43.675781 -37.367188 43.59375 -37.140625 C 43.519531 -36.835938 42.769531 -36.578125 41.34375 -36.359375 C 39.75 -36.128906 38.117188 -35.804688 36.453125 -35.390625 C 34.796875 -34.972656 33.234375 -34.382812 31.765625 -33.625 C 30.296875 -32.875 28.9375 -31.929688 27.6875 -30.796875 C 26.445312 -29.671875 25.445312 -28.351562 24.6875 -26.84375 L 23.78125 -25.03125 L 23.78125 11.671875 L 6.796875 11.671875 L 6.796875 -23.21875 L 6.90625 -51.984375 L 23.21875 -51.984375 L 23.21875 -41 C 23.289062 -41 24.046875 -41.710938 25.484375 -43.140625 C 30.015625 -47.671875 35.222656 -50.804688 41.109375 -52.546875 Z M 41.109375 -52.546875 "/></g></g></g><g clip-path="url(#a25a1392f3)"><path fill="#ffffff" d="M 508.183594 108.175781 L 524.78125 108.175781 L 524.78125 171.773438 L 508.183594 171.773438 Z M 508.183594 108.175781 " fill-opacity="1" fill-rule="nonzero"/></g><g clip-path="url(#ea9b56c328)"><path fill="#ffbd59" d="M 506.429688 81.710938 L 526.527344 81.710938 L 526.527344 100.558594 L 506.429688 100.558594 Z M 506.429688 81.710938 " fill-opacity="1" fill-rule="nonzero"/></g><g clip-path="url(#f2de5b5822)"><path fill="#ffffff" d="M 523.828125 82.054688 L 509.402344 82.054688 C 508.992188 82.054688 508.597656 82.132812 508.21875 82.289062 C 507.839844 82.445312 507.503906 82.667969 507.214844 82.960938 C 506.925781 83.25 506.703125 83.582031 506.546875 83.960938 C 506.386719 84.339844 506.308594 84.734375 506.308594 85.144531 L 506.308594 97.511719 C 506.308594 97.921875 506.386719 98.316406 506.546875 98.695312 C 506.703125 99.074219 506.925781 99.410156 507.214844 99.699219 C 507.503906 99.988281 507.839844 100.210938 508.21875 100.367188 C 508.597656 100.527344 508.992188 100.605469 509.402344 100.605469 L 523.828125 100.605469 C 524.238281 100.605469 524.632812 100.527344 525.011719 100.367188 C 525.390625 100.210938 525.726562 99.988281 526.015625 99.699219 C 526.304688 99.410156 526.53125 99.074219 526.6875 98.695312 C 526.84375 98.316406 526.921875 97.921875 526.921875 97.511719 L 526.921875 85.144531 C 526.921875 84.734375 526.84375 84.339844 526.6875 83.960938 C 526.53125 83.582031 526.304688 83.25 526.015625 82.960938 C 525.726562 82.667969 525.390625 82.445312 525.011719 82.289062 C 524.632812 82.132812 524.238281 82.054688 523.828125 82.054688 Z M 524.859375 97.511719 C 524.859375 97.648438 524.835938 97.78125 524.78125 97.90625 C 524.730469 98.035156 524.65625 98.144531 524.558594 98.242188 C 524.460938 98.339844 524.351562 98.414062 524.222656 98.464844 C 524.097656 98.515625 523.964844 98.542969 523.828125 98.542969 L 509.402344 98.542969 C 509.265625 98.542969 509.132812 98.515625 509.007812 98.464844 C 508.882812 98.414062 508.769531 98.339844 508.671875 98.242188 C 508.578125 98.144531 508.503906 98.035156 508.449219 97.90625 C 508.398438 97.78125 508.371094 97.648438 508.371094 97.511719 L 508.371094 85.144531 C 508.371094 85.007812 508.398438 84.878906 508.449219 84.75 C 508.503906 84.625 508.578125 84.515625 508.671875 84.417969 C 508.769531 84.320312 508.882812 84.246094 509.007812 84.195312 C 509.132812 84.140625 509.265625 84.113281 509.402344 84.113281 L 523.828125 84.113281 C 523.964844 84.113281 524.097656 84.140625 524.222656 84.195312 C 524.351562 84.246094 524.460938 84.320312 524.558594 84.417969 C 524.65625 84.515625 524.730469 84.625 524.78125 84.75 C 524.835938 84.878906 524.859375 85.007812 524.859375 85.144531 Z M 516.316406 92.0625 L 512.195312 96.183594 C 512.097656 96.28125 511.984375 96.355469 511.859375 96.410156 C 511.734375 96.460938 511.601562 96.488281 511.464844 96.488281 C 511.324219 96.488281 511.195312 96.460938 511.066406 96.410156 C 510.941406 96.355469 510.828125 96.28125 510.730469 96.183594 C 510.632812 96.085938 510.558594 95.976562 510.503906 95.847656 C 510.453125 95.722656 510.425781 95.589844 510.425781 95.453125 C 510.425781 95.3125 510.453125 95.183594 510.503906 95.054688 C 510.558594 94.929688 510.632812 94.816406 510.730469 94.71875 L 514.132812 91.328125 L 510.730469 87.9375 C 510.632812 87.839844 510.558594 87.730469 510.507812 87.601562 C 510.453125 87.476562 510.429688 87.34375 510.429688 87.207031 C 510.429688 87.070312 510.453125 86.9375 510.507812 86.8125 C 510.558594 86.683594 510.632812 86.574219 510.730469 86.476562 C 510.828125 86.378906 510.941406 86.304688 511.066406 86.25 C 511.195312 86.199219 511.324219 86.171875 511.464844 86.171875 C 511.601562 86.171875 511.730469 86.199219 511.859375 86.25 C 511.984375 86.304688 512.097656 86.378906 512.195312 86.476562 L 516.316406 90.597656 C 516.414062 90.695312 516.488281 90.804688 516.542969 90.933594 C 516.59375 91.058594 516.621094 91.191406 516.621094 91.328125 C 516.621094 91.464844 516.59375 91.597656 516.542969 91.726562 C 516.488281 91.851562 516.414062 91.964844 516.316406 92.0625 Z M 522.800781 95.453125 C 522.800781 95.589844 522.773438 95.71875 522.722656 95.847656 C 522.667969 95.972656 522.59375 96.082031 522.496094 96.179688 C 522.402344 96.277344 522.289062 96.351562 522.164062 96.402344 C 522.035156 96.457031 521.90625 96.480469 521.769531 96.480469 L 517.648438 96.480469 C 517.511719 96.480469 517.378906 96.457031 517.253906 96.402344 C 517.125 96.351562 517.015625 96.277344 516.917969 96.179688 C 516.820312 96.082031 516.746094 95.972656 516.695312 95.847656 C 516.640625 95.71875 516.617188 95.589844 516.617188 95.453125 C 516.617188 95.316406 516.640625 95.183594 516.695312 95.058594 C 516.746094 94.929688 516.820312 94.820312 516.917969 94.722656 C 517.015625 94.625 517.125 94.550781 517.253906 94.5 C 517.378906 94.445312 517.511719 94.421875 517.648438 94.421875 L 521.769531 94.421875 C 521.90625 94.421875 522.035156 94.445312 522.164062 94.5 C 522.289062 94.550781 522.402344 94.625 522.496094 94.722656 C 522.59375 94.820312 522.667969 94.929688 522.722656 95.058594 C 522.773438 95.183594 522.800781 95.316406 522.800781 95.453125 Z M 522.800781 95.453125 " fill-opacity="1" fill-rule="nonzero"/></g><g fill="#ffffff" fill-opacity="1"><g transform="translate(532.314528, 158.14962)"><g><path d="M 42.6875 -39.296875 C 39.894531 -39.296875 37.195312 -38.992188 34.59375 -38.390625 C 31.988281 -37.785156 29.40625 -36.957031 26.84375 -35.90625 L 24.46875 -34.875 L 24.6875 -17.21875 L 25.375 -15.734375 C 25.976562 -14.378906 26.84375 -13.226562 27.96875 -12.28125 C 29.101562 -11.34375 30.367188 -10.550781 31.765625 -9.90625 C 33.160156 -9.269531 34.628906 -8.800781 36.171875 -8.5 C 37.722656 -8.195312 39.179688 -8.046875 40.546875 -8.046875 C 43.179688 -8.046875 45.328125 -8.457031 46.984375 -9.28125 C 48.648438 -10.113281 49.972656 -11.242188 50.953125 -12.671875 C 51.941406 -14.109375 52.601562 -15.804688 52.9375 -17.765625 C 53.28125 -19.734375 53.453125 -21.816406 53.453125 -24.015625 C 53.453125 -25.898438 53.335938 -27.765625 53.109375 -29.609375 C 52.890625 -31.460938 52.398438 -33.101562 51.640625 -34.53125 C 50.890625 -35.96875 49.8125 -37.117188 48.40625 -37.984375 C 47.007812 -38.859375 45.101562 -39.296875 42.6875 -39.296875 Z M 45.1875 -52.09375 C 48.207031 -52.09375 51.078125 -51.789062 53.796875 -51.1875 C 56.515625 -50.582031 58.984375 -49.582031 61.203125 -48.1875 C 63.429688 -46.789062 65.320312 -44.976562 66.875 -42.75 C 68.425781 -40.519531 69.578125 -37.742188 70.328125 -34.421875 C 70.484375 -33.597656 70.65625 -32.316406 70.84375 -30.578125 C 71.03125 -28.835938 71.160156 -26.570312 71.234375 -23.78125 C 71.304688 -21.59375 71.265625 -19.703125 71.109375 -18.109375 C 70.960938 -16.523438 70.816406 -15.242188 70.671875 -14.265625 C 69.765625 -6.265625 66.835938 -0.132812 61.890625 4.125 C 56.941406 8.394531 50.46875 10.53125 42.46875 10.53125 C 39.300781 10.53125 36.375 10.09375 33.6875 9.21875 C 31.007812 8.351562 28.578125 7.09375 26.390625 5.4375 L 24.578125 4.078125 L 24.578125 35.453125 L 7.015625 35.453125 L 7.140625 -6.234375 C 7.210938 -19.671875 7.25 -30.007812 7.25 -37.25 C 7.25 -44.5 7.25 -48.691406 7.25 -49.828125 L 7.25 -51.875 L 24.46875 -51.875 L 24.6875 -45.1875 L 26.609375 -46.4375 C 29.554688 -48.320312 32.5 -49.734375 35.4375 -50.671875 C 38.382812 -51.617188 41.632812 -52.09375 45.1875 -52.09375 Z M 45.1875 -52.09375 "/></g></g></g><g fill="#ffffff" fill-opacity="1"><g transform="translate(608.193167, 158.14962)"><g><path d="M 14.609375 -65.453125 L 14.828125 -68.296875 L 31.703125 -68.296875 L 31.703125 -52.09375 C 31.703125 -51.863281 34.3125 -51.75 39.53125 -51.75 L 47.21875 -51.75 L 47.109375 -44.171875 L 47.109375 -36.6875 L 39.40625 -36.6875 C 34.351562 -36.6875 31.75 -36.613281 31.59375 -36.46875 L 31.484375 -26.15625 C 31.554688 -22.6875 31.59375 -19.910156 31.59375 -17.828125 C 31.59375 -15.753906 31.59375 -14.378906 31.59375 -13.703125 C 31.59375 -12.347656 31.707031 -11.441406 31.9375 -10.984375 C 32.539062 -9.703125 33.65625 -8.816406 35.28125 -8.328125 C 36.90625 -7.835938 39.414062 -7.550781 42.8125 -7.46875 L 47 -7.46875 L 47 1.46875 C 47 7.207031 46.921875 10.457031 46.765625 11.21875 L 46.65625 12 L 44.953125 12 C 42.765625 12 40.519531 11.941406 38.21875 11.828125 C 35.914062 11.722656 33.671875 11.421875 31.484375 10.921875 C 29.296875 10.429688 27.203125 9.710938 25.203125 8.765625 C 23.203125 7.828125 21.367188 6.53125 19.703125 4.875 C 17.960938 3.0625 16.675781 1.132812 15.84375 -0.90625 C 15.019531 -2.945312 14.53125 -5.175781 14.375 -7.59375 C 14.300781 -8.5 14.242188 -10.289062 14.203125 -12.96875 C 14.171875 -15.644531 14.15625 -19.285156 14.15625 -23.890625 L 14.15625 -36.578125 L 1.8125 -36.578125 L 1.8125 -39.984375 C 1.8125 -40.203125 1.8125 -40.671875 1.8125 -41.390625 C 1.8125 -42.109375 1.789062 -42.863281 1.75 -43.65625 C 1.71875 -44.445312 1.703125 -45.179688 1.703125 -45.859375 C 1.703125 -46.546875 1.703125 -47 1.703125 -47.21875 L 1.703125 -51.421875 C 1.847656 -51.640625 4 -51.75 8.15625 -51.75 L 14.5 -51.75 L 14.5 -57.078125 C 14.5 -58.960938 14.5 -60.601562 14.5 -62 C 14.5 -63.394531 14.535156 -64.546875 14.609375 -65.453125 Z M 14.609375 -65.453125 "/></g></g></g></svg>