<svg xmlns="http://www.w3.org/2000/svg" xmlns:xlink="http://www.w3.org/1999/xlink" width="955" zoomAndPan="magnify" viewBox="0 0 716.25 524.249967" height="699" preserveAspectRatio="xMidYMid meet" version="1.0"><defs><g/><clipPath id="19ad7ede48"><path d="M 363.828125 330.789062 L 386.382812 330.789062 L 386.382812 417.210938 L 363.828125 417.210938 Z M 363.828125 330.789062 " clip-rule="nonzero"/></clipPath><clipPath id="85bfc3ef69"><path d="M 361.441406 294.828125 L 388.769531 294.828125 L 388.769531 320.4375 L 361.441406 320.4375 Z M 361.441406 294.828125 " clip-rule="nonzero"/></clipPath><clipPath id="174e0f90a0"><path d="M 365.003906 299.378906 L 385.441406 299.378906 L 385.441406 316.40625 L 365.003906 316.40625 Z M 365.003906 299.378906 " clip-rule="nonzero"/></clipPath></defs><g fill="#262626" fill-opacity="1"><g transform="translate(100.494587, 398.402438)"><g><path d="M 48.171875 -98.96875 C 54.328125 -98.96875 60.6875 -98.8125 67.25 -98.5 C 68.070312 -98.394531 69.070312 -98.316406 70.25 -98.265625 C 71.4375 -98.210938 72.898438 -98.132812 74.640625 -98.03125 C 77.921875 -97.832031 79.921875 -97.679688 80.640625 -97.578125 L 87.265625 -97.265625 L 87.109375 -74.03125 C 86.898438 -74.03125 85.664062 -74.207031 83.40625 -74.5625 C 81.15625 -74.925781 78.234375 -75.363281 74.640625 -75.875 C 71.054688 -76.28125 67.492188 -76.613281 63.953125 -76.875 C 60.410156 -77.132812 56.84375 -77.265625 53.25 -77.265625 C 51.40625 -77.265625 49.222656 -77.1875 46.703125 -77.03125 C 44.191406 -76.875 41.832031 -76.460938 39.625 -75.796875 C 37.425781 -75.128906 35.554688 -74.078125 34.015625 -72.640625 C 32.472656 -71.203125 31.703125 -69.148438 31.703125 -66.484375 C 31.703125 -64.023438 32.519531 -62.226562 34.15625 -61.09375 C 35.800781 -59.96875 37.648438 -59.148438 39.703125 -58.640625 C 40.835938 -58.328125 42.476562 -58.015625 44.625 -57.703125 C 46.78125 -57.398438 49.503906 -57.046875 52.796875 -56.640625 C 58.328125 -56.023438 62.988281 -55.457031 66.78125 -54.9375 C 70.582031 -54.425781 73.664062 -53.757812 76.03125 -52.9375 C 79.519531 -51.8125 82.546875 -50.195312 85.109375 -48.09375 C 87.671875 -45.988281 89.773438 -43.578125 91.421875 -40.859375 C 93.066406 -38.140625 94.269531 -35.140625 95.03125 -31.859375 C 95.800781 -28.578125 96.1875 -25.242188 96.1875 -21.859375 C 96.1875 -20.109375 96.160156 -18.515625 96.109375 -17.078125 C 96.054688 -15.640625 95.984375 -14.410156 95.890625 -13.390625 C 95.066406 -7.335938 93.191406 -2.363281 90.265625 1.53125 C 87.335938 5.4375 83.769531 8.488281 79.5625 10.6875 C 75.363281 12.894531 70.695312 14.4375 65.5625 15.3125 C 60.4375 16.1875 55.253906 16.625 50.015625 16.625 C 43.035156 16.625 36.054688 15.851562 29.078125 14.3125 C 22.109375 12.769531 15.390625 10.664062 8.921875 8 L 7.84375 7.546875 L 7.703125 -5.546875 C 7.898438 -13.140625 8.050781 -16.9375 8.15625 -16.9375 C 8.5625 -16.9375 10.148438 -16.578125 12.921875 -15.859375 C 18.460938 -14.523438 24.003906 -13.445312 29.546875 -12.625 C 35.085938 -11.800781 40.734375 -11.285156 46.484375 -11.078125 C 48.535156 -10.972656 50.300781 -10.945312 51.78125 -11 C 53.269531 -11.050781 54.425781 -11.128906 55.25 -11.234375 C 58.632812 -11.742188 61.351562 -12.613281 63.40625 -13.84375 C 65.457031 -15.082031 67.050781 -16.675781 68.1875 -18.625 C 68.800781 -19.851562 69.109375 -21.648438 69.109375 -24.015625 C 69.109375 -27.296875 68.441406 -29.578125 67.109375 -30.859375 C 65.773438 -32.140625 63.414062 -33.085938 60.03125 -33.703125 C 59.207031 -33.910156 58.128906 -34.066406 56.796875 -34.171875 C 55.460938 -34.273438 53.816406 -34.425781 51.859375 -34.625 C 43.960938 -35.550781 37.320312 -36.628906 31.9375 -37.859375 C 26.550781 -39.085938 22.164062 -40.675781 18.78125 -42.625 C 14.257812 -45.195312 11.023438 -48.5625 9.078125 -52.71875 C 7.128906 -56.875 6.15625 -61.71875 6.15625 -67.25 C 6.15625 -74.539062 7.875 -80.695312 11.3125 -85.71875 C 14.75 -90.75 19.546875 -94.289062 25.703125 -96.34375 C 29.296875 -97.570312 32.988281 -98.316406 36.78125 -98.578125 C 40.582031 -98.835938 44.378906 -98.96875 48.171875 -98.96875 Z M 48.171875 -98.96875 "/></g></g></g><g fill="#262626" fill-opacity="1"><g transform="translate(202.838935, 398.402438)"><g><path d="M 47.5625 -70.953125 C 51.050781 -71.253906 54.847656 -71.253906 58.953125 -70.953125 C 64.585938 -70.640625 69.070312 -70.378906 72.40625 -70.171875 C 75.75 -69.972656 77.828125 -69.769531 78.640625 -69.5625 L 79.265625 -69.40625 L 79.265625 -57.875 C 79.265625 -50.382812 79.210938 -46.585938 79.109375 -46.484375 C 79.003906 -46.378906 78.488281 -46.632812 77.5625 -47.25 C 74.175781 -49.40625 70.023438 -50.941406 65.109375 -51.859375 C 64.484375 -52.066406 63.53125 -52.195312 62.25 -52.25 C 60.96875 -52.300781 59.40625 -52.328125 57.5625 -52.328125 C 53.5625 -52.222656 49.816406 -51.707031 46.328125 -50.78125 C 42.835938 -49.863281 39.785156 -48.453125 37.171875 -46.546875 C 34.554688 -44.648438 32.453125 -42.210938 30.859375 -39.234375 C 29.265625 -36.265625 28.367188 -32.625 28.171875 -28.3125 C 28.171875 -24.3125 28.9375 -20.976562 30.46875 -18.3125 C 32.007812 -15.644531 34.035156 -13.539062 36.546875 -12 C 39.066406 -10.46875 41.941406 -9.367188 45.171875 -8.703125 C 48.398438 -8.035156 51.707031 -7.703125 55.09375 -7.703125 C 59.507812 -7.703125 63.664062 -8.132812 67.5625 -9 C 71.457031 -9.875 75.359375 -11.441406 79.265625 -13.703125 C 80.597656 -14.421875 81.316406 -14.78125 81.421875 -14.78125 C 81.523438 -14.78125 81.578125 -10.519531 81.578125 -2 L 81.578125 10.78125 L 79.265625 11.703125 C 72.390625 14.773438 64.234375 16.3125 54.796875 16.3125 C 47.921875 16.3125 41.503906 15.4375 35.546875 13.6875 C 29.597656 11.945312 24.441406 9.28125 20.078125 5.6875 C 15.722656 2.101562 12.3125 -2.457031 9.84375 -8 C 7.382812 -13.539062 6.15625 -20.160156 6.15625 -27.859375 C 6.257812 -34.222656 7.335938 -39.941406 9.390625 -45.015625 C 11.441406 -50.097656 14.257812 -54.484375 17.84375 -58.171875 C 21.4375 -61.867188 25.75 -64.816406 30.78125 -67.015625 C 35.8125 -69.222656 41.40625 -70.535156 47.5625 -70.953125 Z M 47.5625 -70.953125 "/></g></g></g><g fill="#262626" fill-opacity="1"><g transform="translate(289.485357, 398.402438)"><g><path d="M 55.875 -71.40625 C 57.71875 -71.925781 58.691406 -72.1875 58.796875 -72.1875 C 59.203125 -72.1875 59.40625 -71.671875 59.40625 -70.640625 L 59.40625 -61.71875 C 59.40625 -54.53125 59.351562 -50.785156 59.25 -50.484375 C 59.144531 -50.066406 58.117188 -49.707031 56.171875 -49.40625 C 54.015625 -49.09375 51.804688 -48.65625 49.546875 -48.09375 C 47.296875 -47.53125 45.171875 -46.734375 43.171875 -45.703125 C 41.171875 -44.679688 39.320312 -43.398438 37.625 -41.859375 C 35.9375 -40.316406 34.578125 -38.519531 33.546875 -36.46875 L 32.328125 -34.015625 L 32.328125 15.859375 L 9.234375 15.859375 L 9.234375 -31.546875 L 9.390625 -70.640625 L 31.546875 -70.640625 L 31.546875 -55.71875 C 31.648438 -55.71875 32.675781 -56.691406 34.625 -58.640625 C 40.78125 -64.796875 47.863281 -69.050781 55.875 -71.40625 Z M 55.875 -71.40625 "/></g></g></g><g clip-path="url(#19ad7ede48)"><path fill="#242426" d="M 363.828125 330.789062 L 386.382812 330.789062 L 386.382812 417.21875 L 363.828125 417.21875 Z M 363.828125 330.789062 " fill-opacity="1" fill-rule="nonzero"/></g><g clip-path="url(#85bfc3ef69)"><path fill="#ffbd59" d="M 361.441406 294.828125 L 388.753906 294.828125 L 388.753906 320.4375 L 361.441406 320.4375 Z M 361.441406 294.828125 " fill-opacity="1" fill-rule="nonzero"/></g><g clip-path="url(#174e0f90a0)"><path fill="#ffffff" d="M 385.097656 295.292969 L 365.476562 295.292969 C 365.203125 295.292969 364.929688 295.320312 364.65625 295.371094 C 364.386719 295.425781 364.125 295.507812 363.867188 295.613281 C 363.613281 295.71875 363.371094 295.847656 363.140625 296 C 362.914062 296.152344 362.699219 296.328125 362.503906 296.523438 C 362.308594 296.71875 362.136719 296.929688 361.980469 297.160156 C 361.828125 297.390625 361.699219 297.632812 361.59375 297.886719 C 361.488281 298.140625 361.410156 298.40625 361.355469 298.675781 C 361.300781 298.945312 361.273438 299.21875 361.273438 299.496094 L 361.273438 316.3125 C 361.273438 316.589844 361.300781 316.863281 361.355469 317.132812 C 361.410156 317.402344 361.488281 317.667969 361.59375 317.921875 C 361.699219 318.175781 361.828125 318.417969 361.980469 318.648438 C 362.136719 318.878906 362.308594 319.089844 362.503906 319.285156 C 362.699219 319.480469 362.914062 319.65625 363.140625 319.808594 C 363.371094 319.960938 363.613281 320.089844 363.867188 320.195312 C 364.125 320.300781 364.386719 320.382812 364.65625 320.4375 C 364.929688 320.488281 365.203125 320.515625 365.476562 320.515625 L 385.097656 320.515625 C 385.371094 320.515625 385.644531 320.488281 385.917969 320.4375 C 386.1875 320.382812 386.449219 320.300781 386.707031 320.195312 C 386.960938 320.089844 387.203125 319.960938 387.433594 319.808594 C 387.660156 319.65625 387.875 319.480469 388.070312 319.285156 C 388.265625 319.089844 388.4375 318.878906 388.59375 318.648438 C 388.746094 318.417969 388.875 318.175781 388.980469 317.921875 C 389.085938 317.667969 389.167969 317.402344 389.21875 317.132812 C 389.273438 316.863281 389.300781 316.589844 389.300781 316.3125 L 389.300781 299.496094 C 389.300781 299.21875 389.273438 298.945312 389.21875 298.675781 C 389.167969 298.40625 389.085938 298.140625 388.980469 297.886719 C 388.875 297.632812 388.746094 297.390625 388.59375 297.160156 C 388.4375 296.929688 388.265625 296.71875 388.070312 296.523438 C 387.875 296.328125 387.660156 296.152344 387.433594 296 C 387.203125 295.847656 386.960938 295.71875 386.707031 295.613281 C 386.449219 295.507812 386.1875 295.425781 385.917969 295.371094 C 385.644531 295.320312 385.371094 295.292969 385.097656 295.292969 Z M 386.5 316.3125 C 386.5 316.5 386.460938 316.675781 386.390625 316.847656 C 386.320312 317.019531 386.21875 317.171875 386.085938 317.304688 C 385.957031 317.433594 385.804688 317.535156 385.632812 317.605469 C 385.460938 317.679688 385.28125 317.714844 385.097656 317.714844 L 365.476562 317.714844 C 365.292969 317.714844 365.113281 317.679688 364.941406 317.605469 C 364.769531 317.535156 364.617188 317.433594 364.488281 317.304688 C 364.355469 317.171875 364.253906 317.019531 364.183594 316.847656 C 364.113281 316.675781 364.078125 316.5 364.078125 316.3125 L 364.078125 299.496094 C 364.078125 299.308594 364.113281 299.132812 364.183594 298.960938 C 364.253906 298.789062 364.355469 298.636719 364.488281 298.503906 C 364.617188 298.375 364.769531 298.273438 364.941406 298.203125 C 365.113281 298.128906 365.292969 298.09375 365.476562 298.09375 L 385.097656 298.09375 C 385.28125 298.09375 385.460938 298.128906 385.632812 298.203125 C 385.804688 298.273438 385.957031 298.375 386.085938 298.503906 C 386.21875 298.636719 386.320312 298.789062 386.390625 298.960938 C 386.460938 299.132812 386.5 299.308594 386.5 299.496094 Z M 374.882812 308.898438 L 369.277344 314.503906 C 369.144531 314.636719 368.992188 314.738281 368.820312 314.8125 C 368.648438 314.882812 368.46875 314.917969 368.28125 314.917969 C 368.09375 314.917969 367.914062 314.882812 367.742188 314.8125 C 367.570312 314.738281 367.417969 314.636719 367.285156 314.503906 C 367.152344 314.371094 367.050781 314.222656 366.980469 314.046875 C 366.90625 313.875 366.871094 313.695312 366.871094 313.507812 C 366.871094 313.324219 366.90625 313.144531 366.980469 312.96875 C 367.050781 312.796875 367.152344 312.644531 367.285156 312.515625 L 371.910156 307.902344 L 367.285156 303.292969 C 367.152344 303.160156 367.050781 303.007812 366.980469 302.835938 C 366.910156 302.664062 366.875 302.484375 366.875 302.296875 C 366.875 302.113281 366.910156 301.933594 366.980469 301.761719 C 367.050781 301.585938 367.152344 301.4375 367.285156 301.304688 C 367.417969 301.171875 367.570312 301.070312 367.742188 301 C 367.914062 300.925781 368.09375 300.890625 368.28125 300.890625 C 368.46875 300.890625 368.648438 300.925781 368.820312 301 C 368.992188 301.070312 369.144531 301.171875 369.277344 301.304688 L 374.882812 306.910156 C 375.011719 307.039062 375.117188 307.191406 375.1875 307.363281 C 375.257812 307.539062 375.296875 307.71875 375.296875 307.902344 C 375.296875 308.089844 375.257812 308.269531 375.1875 308.441406 C 375.117188 308.617188 375.011719 308.765625 374.882812 308.898438 Z M 383.695312 313.507812 C 383.695312 313.695312 383.660156 313.875 383.589844 314.046875 C 383.519531 314.21875 383.417969 314.367188 383.285156 314.5 C 383.152344 314.632812 383.003906 314.734375 382.832031 314.804688 C 382.660156 314.875 382.480469 314.910156 382.292969 314.910156 L 376.6875 314.910156 C 376.503906 314.910156 376.324219 314.875 376.152344 314.804688 C 375.980469 314.734375 375.828125 314.632812 375.699219 314.5 C 375.566406 314.367188 375.464844 314.21875 375.394531 314.046875 C 375.324219 313.875 375.289062 313.695312 375.289062 313.507812 C 375.289062 313.324219 375.324219 313.144531 375.394531 312.972656 C 375.464844 312.800781 375.566406 312.648438 375.699219 312.519531 C 375.828125 312.386719 375.980469 312.285156 376.152344 312.214844 C 376.324219 312.144531 376.503906 312.109375 376.6875 312.109375 L 382.292969 312.109375 C 382.480469 312.109375 382.660156 312.144531 382.832031 312.214844 C 383.003906 312.285156 383.152344 312.386719 383.285156 312.519531 C 383.417969 312.648438 383.519531 312.800781 383.589844 312.972656 C 383.660156 313.144531 383.695312 313.324219 383.695312 313.507812 Z M 383.695312 313.507812 " fill-opacity="1" fill-rule="nonzero"/></g><g fill="#262626" fill-opacity="1"><g transform="translate(396.620291, 398.402438)"><g><path d="M 58.015625 -53.40625 C 54.222656 -53.40625 50.554688 -52.992188 47.015625 -52.171875 C 43.472656 -51.347656 39.957031 -50.21875 36.46875 -48.78125 L 33.25 -47.40625 L 33.546875 -23.390625 L 34.46875 -21.390625 C 35.289062 -19.546875 36.472656 -17.984375 38.015625 -16.703125 C 39.554688 -15.421875 41.273438 -14.34375 43.171875 -13.46875 C 45.066406 -12.59375 47.066406 -11.945312 49.171875 -11.53125 C 51.273438 -11.125 53.25 -10.921875 55.09375 -10.921875 C 58.6875 -10.921875 61.609375 -11.484375 63.859375 -12.609375 C 66.117188 -13.742188 67.914062 -15.285156 69.25 -17.234375 C 70.59375 -19.179688 71.492188 -21.488281 71.953125 -24.15625 C 72.410156 -26.832031 72.640625 -29.65625 72.640625 -32.625 C 72.640625 -35.1875 72.484375 -37.722656 72.171875 -40.234375 C 71.867188 -42.753906 71.203125 -44.988281 70.171875 -46.9375 C 69.148438 -48.882812 67.691406 -50.445312 65.796875 -51.625 C 63.898438 -52.8125 61.304688 -53.40625 58.015625 -53.40625 Z M 61.40625 -70.796875 C 65.507812 -70.796875 69.40625 -70.382812 73.09375 -69.5625 C 76.789062 -68.738281 80.15625 -67.378906 83.1875 -65.484375 C 86.21875 -63.585938 88.78125 -61.125 90.875 -58.09375 C 92.976562 -55.070312 94.546875 -51.300781 95.578125 -46.78125 C 95.785156 -45.65625 96.015625 -43.910156 96.265625 -41.546875 C 96.523438 -39.191406 96.707031 -36.117188 96.8125 -32.328125 C 96.914062 -29.347656 96.863281 -26.78125 96.65625 -24.625 C 96.445312 -22.46875 96.238281 -20.722656 96.03125 -19.390625 C 94.800781 -8.515625 90.828125 -0.179688 84.109375 5.609375 C 77.390625 11.410156 68.59375 14.3125 57.71875 14.3125 C 53.40625 14.3125 49.425781 13.722656 45.78125 12.546875 C 42.144531 11.367188 38.835938 9.648438 35.859375 7.390625 L 33.390625 5.546875 L 33.390625 48.171875 L 9.546875 48.171875 L 9.703125 -8.46875 C 9.796875 -26.726562 9.84375 -40.78125 9.84375 -50.625 C 9.84375 -60.476562 9.84375 -66.175781 9.84375 -67.71875 L 9.84375 -70.484375 L 33.25 -70.484375 L 33.546875 -61.40625 L 36.171875 -63.109375 C 40.171875 -65.671875 44.171875 -67.59375 48.171875 -68.875 C 52.171875 -70.15625 56.582031 -70.796875 61.40625 -70.796875 Z M 61.40625 -70.796875 "/></g></g></g><g fill="#262626" fill-opacity="1"><g transform="translate(499.734161, 398.402438)"><g><path d="M 19.859375 -88.953125 L 20.15625 -92.8125 L 43.09375 -92.8125 L 43.09375 -70.796875 C 43.09375 -70.484375 46.632812 -70.328125 53.71875 -70.328125 L 64.171875 -70.328125 L 64.03125 -60.03125 L 64.03125 -49.859375 L 53.5625 -49.859375 C 46.6875 -49.859375 43.144531 -49.757812 42.9375 -49.5625 L 42.78125 -35.546875 C 42.882812 -30.828125 42.9375 -27.054688 42.9375 -24.234375 C 42.9375 -21.421875 42.9375 -19.550781 42.9375 -18.625 C 42.9375 -16.78125 43.09375 -15.546875 43.40625 -14.921875 C 44.226562 -13.179688 45.738281 -11.976562 47.9375 -11.3125 C 50.144531 -10.644531 53.554688 -10.257812 58.171875 -10.15625 L 63.875 -10.15625 L 63.875 2 C 63.875 9.800781 63.769531 14.210938 63.5625 15.234375 L 63.40625 16.3125 L 61.09375 16.3125 C 58.125 16.3125 55.070312 16.234375 51.9375 16.078125 C 48.8125 15.929688 45.757812 15.523438 42.78125 14.859375 C 39.8125 14.191406 36.96875 13.210938 34.25 11.921875 C 31.53125 10.640625 29.039062 8.875 26.78125 6.625 C 24.414062 4.15625 22.671875 1.535156 21.546875 -1.234375 C 20.421875 -4.003906 19.753906 -7.03125 19.546875 -10.3125 C 19.441406 -11.539062 19.363281 -13.976562 19.3125 -17.625 C 19.257812 -21.269531 19.234375 -26.21875 19.234375 -32.46875 L 19.234375 -49.71875 L 2.46875 -49.71875 L 2.46875 -54.328125 C 2.46875 -54.640625 2.46875 -55.28125 2.46875 -56.25 C 2.46875 -57.226562 2.441406 -58.253906 2.390625 -59.328125 C 2.335938 -60.410156 2.3125 -61.410156 2.3125 -62.328125 C 2.3125 -63.253906 2.3125 -63.867188 2.3125 -64.171875 L 2.3125 -69.875 C 2.507812 -70.175781 5.429688 -70.328125 11.078125 -70.328125 L 19.703125 -70.328125 L 19.703125 -77.5625 C 19.703125 -80.132812 19.703125 -82.367188 19.703125 -84.265625 C 19.703125 -86.160156 19.753906 -87.722656 19.859375 -88.953125 Z M 19.859375 -88.953125 "/></g></g></g><g fill="#ffbd59" fill-opacity="1"><g transform="translate(89.372391, 214.618127)"><g><path d="M 69.5625 -99.734375 C 78.90625 -99.734375 88.296875 -98.398438 97.734375 -95.734375 L 99.890625 -95.109375 L 99.890625 -82.796875 C 99.890625 -74.585938 99.835938 -70.484375 99.734375 -70.484375 C 99.628906 -70.484375 99.472656 -70.585938 99.265625 -70.796875 C 99.066406 -71.003906 98.65625 -71.3125 98.03125 -71.71875 C 96.5 -72.84375 94.628906 -73.816406 92.421875 -74.640625 C 90.210938 -75.460938 87.925781 -76.128906 85.5625 -76.640625 C 83.207031 -77.160156 80.820312 -77.546875 78.40625 -77.796875 C 76 -78.054688 73.820312 -78.1875 71.875 -78.1875 C 59.050781 -78.1875 49.484375 -75.207031 43.171875 -69.25 C 36.859375 -63.300781 33.5 -54.171875 33.09375 -41.859375 C 32.988281 -39.398438 32.960938 -37.195312 33.015625 -35.25 C 33.066406 -33.300781 33.242188 -31.503906 33.546875 -29.859375 C 34.265625 -26.054688 36.1875 -22.691406 39.3125 -19.765625 C 42.445312 -16.847656 45.757812 -14.722656 49.25 -13.390625 C 51.707031 -12.460938 54.472656 -11.769531 57.546875 -11.3125 C 60.628906 -10.851562 63.816406 -10.625 67.109375 -10.625 C 72.023438 -10.625 76.789062 -11.109375 81.40625 -12.078125 C 86.03125 -13.054688 90.546875 -14.625 94.953125 -16.78125 C 96.390625 -17.5 97.492188 -18.085938 98.265625 -18.546875 C 99.035156 -19.003906 99.472656 -19.234375 99.578125 -19.234375 C 99.679688 -19.234375 99.757812 -17.796875 99.8125 -14.921875 C 99.863281 -12.054688 99.890625 -8.625 99.890625 -4.625 L 99.890625 10.15625 L 97.421875 11.078125 C 92.804688 12.828125 87.878906 14.082031 82.640625 14.84375 C 77.410156 15.613281 72.332031 16 67.40625 16 C 61.863281 16 56.398438 15.535156 51.015625 14.609375 C 45.628906 13.691406 40.578125 12.15625 35.859375 10 C 31.140625 7.84375 26.878906 4.914062 23.078125 1.21875 C 19.285156 -2.46875 16.210938 -7.082031 13.859375 -12.625 C 12.109375 -16.726562 10.875 -21.113281 10.15625 -25.78125 C 9.4375 -30.445312 9.179688 -35.550781 9.390625 -41.09375 C 9.597656 -47.25 10.132812 -52.765625 11 -57.640625 C 11.875 -62.515625 13.285156 -66.847656 15.234375 -70.640625 C 17.898438 -75.878906 21.179688 -80.34375 25.078125 -84.03125 C 28.984375 -87.726562 33.269531 -90.726562 37.9375 -93.03125 C 42.601562 -95.34375 47.628906 -97.035156 53.015625 -98.109375 C 58.398438 -99.191406 63.914062 -99.734375 69.5625 -99.734375 Z M 69.5625 -99.734375 "/></g></g></g><g fill="#242426" fill-opacity="1"><g transform="translate(197.117547, 214.618127)"><g><path d="M 51.71875 -56.328125 C 45.863281 -56.328125 41.007812 -55.066406 37.15625 -52.546875 C 33.3125 -50.035156 30.828125 -45.859375 29.703125 -40.015625 L 29.546875 -39.25 L 46.9375 -39.25 L 64.484375 -39.40625 L 64.484375 -42.328125 C 64.273438 -46.628906 63.222656 -50.035156 61.328125 -52.546875 C 59.429688 -55.066406 56.226562 -56.328125 51.71875 -56.328125 Z M 42.171875 -70.484375 C 43.097656 -70.585938 44.328125 -70.664062 45.859375 -70.71875 C 47.398438 -70.769531 49.25 -70.742188 51.40625 -70.640625 C 55.71875 -70.535156 59.945312 -70.046875 64.09375 -69.171875 C 68.25 -68.304688 72.046875 -66.921875 75.484375 -65.015625 C 78.921875 -63.117188 81.820312 -60.609375 84.1875 -57.484375 C 86.550781 -54.359375 88.085938 -50.382812 88.796875 -45.5625 C 89.003906 -43.914062 89.1875 -41.859375 89.34375 -39.390625 C 89.5 -36.929688 89.578125 -34.007812 89.578125 -30.625 L 89.578125 -22.625 L 29.546875 -22.625 L 29.703125 -21.234375 C 30.015625 -18.160156 30.863281 -15.722656 32.25 -13.921875 C 33.632812 -12.128906 35.300781 -10.796875 37.25 -9.921875 C 39.195312 -9.054688 41.375 -8.492188 43.78125 -8.234375 C 46.195312 -7.972656 48.632812 -7.84375 51.09375 -7.84375 C 55.914062 -7.84375 60.503906 -8.226562 64.859375 -9 C 69.222656 -9.769531 73.664062 -10.976562 78.1875 -12.625 C 80.132812 -13.34375 81.800781 -13.984375 83.1875 -14.546875 C 84.570312 -15.109375 85.675781 -15.644531 86.5 -16.15625 C 87.007812 -16.46875 87.316406 -16.625 87.421875 -16.625 C 87.523438 -16.726562 87.628906 -16.78125 87.734375 -16.78125 C 87.734375 -16.675781 87.65625 -15.851562 87.5 -14.3125 C 87.34375 -12.769531 87.0625 -10.460938 86.65625 -7.390625 C 86.132812 -3.898438 85.769531 -1.128906 85.5625 0.921875 C 85.363281 2.972656 85.210938 4.410156 85.109375 5.234375 L 84.796875 8.46875 L 82.34375 9.546875 C 77.3125 11.796875 72.226562 13.429688 67.09375 14.453125 C 61.96875 15.484375 56.6875 16 51.25 16 C 45.707031 16 40.445312 15.460938 35.46875 14.390625 C 30.5 13.316406 26.035156 11.546875 22.078125 9.078125 C 18.128906 6.617188 14.820312 3.414062 12.15625 -0.53125 C 9.488281 -4.488281 7.691406 -9.390625 6.765625 -15.234375 C 6.359375 -17.285156 6.15625 -21.546875 6.15625 -28.015625 C 6.15625 -34.472656 6.359375 -38.675781 6.765625 -40.625 C 7.585938 -45.144531 9.078125 -49.171875 11.234375 -52.703125 C 13.390625 -56.242188 16.03125 -59.242188 19.15625 -61.703125 C 22.289062 -64.171875 25.804688 -66.148438 29.703125 -67.640625 C 33.597656 -69.128906 37.753906 -70.078125 42.171875 -70.484375 Z M 42.171875 -70.484375 "/></g></g></g><g fill="#242426" fill-opacity="1"><g transform="translate(292.690249, 214.618127)"><g><path d="M 9.546875 -102.046875 L 33.546875 -102.046875 L 33.546875 -13.234375 C 33.546875 -10.566406 33.929688 -8.769531 34.703125 -7.84375 C 35.472656 -6.925781 36.882812 -6.46875 38.9375 -6.46875 L 41.859375 -6.46875 L 41.703125 15.703125 L 35.703125 15.703125 C 30.984375 15.703125 26.957031 15.210938 23.625 14.234375 C 20.289062 13.265625 17.570312 11.648438 15.46875 9.390625 C 13.363281 7.128906 11.847656 4.148438 10.921875 0.453125 C 10.003906 -3.234375 9.546875 -7.796875 9.546875 -13.234375 Z M 9.546875 -102.046875 "/></g></g></g><g fill="#242426" fill-opacity="1"><g transform="translate(336.706025, 214.618127)"><g><path d="M 9.546875 -102.046875 L 33.546875 -102.046875 L 33.546875 -13.234375 C 33.546875 -10.566406 33.929688 -8.769531 34.703125 -7.84375 C 35.472656 -6.925781 36.882812 -6.46875 38.9375 -6.46875 L 41.859375 -6.46875 L 41.703125 15.703125 L 35.703125 15.703125 C 30.984375 15.703125 26.957031 15.210938 23.625 14.234375 C 20.289062 13.265625 17.570312 11.648438 15.46875 9.390625 C 13.363281 7.128906 11.847656 4.148438 10.921875 0.453125 C 10.003906 -3.234375 9.546875 -7.796875 9.546875 -13.234375 Z M 9.546875 -102.046875 "/></g></g></g></svg>